<?xml version="1.0" encoding="UTF-8"?> <svg xmlns="http://www.w3.org/2000/svg" viewBox="0 0 685.42 265.55"><defs><style>.cls-1{fill:#f69079;}</style></defs><title>tomking-puppies-logo-1</title><g id="Layer_2" data-name="Layer 2"><g id="Réteg_1" data-name="Réteg 1"><path class="cls-1" d="M55.27,22.05,67.4,2H65l12,20a1.39,1.39,0,0,0,1.86.49l17.44-9.25-2-1.54L86.78,32.42,82.24,44.9a23.45,23.45,0,0,0-1,2.84c.32-1.47,1.92-.29-.36-.76-3.83-.81-8.7,0-12.61,0H53.83c-.85,0-2.9-.38-3.71,0,.5-.24.62,2,.51-.1-.17-3.23-2.62-7.46-3.69-10.48L38.28,11.75l-2,1.54L53.4,22.54c1.55.84,2.93-1.52,1.38-2.36L37.66,10.94c-1-.53-2.43.36-2,1.54L48.38,48.7a1.41,1.41,0,0,0,1.32,1H82.44a1.41,1.41,0,0,0,1.32-1L96.94,12.48c.44-1.19-1-2.06-2-1.54L77.51,20.18l1.86.49-12-20A1.38,1.38,0,0,0,65,.66l-12.13,20A1.37,1.37,0,0,0,55.27,22.05Z"></path><path class="cls-1" d="M44,49.07,39.24,36.26c-1.08-2.9-1.88-8-4.16-10.31-4.25-4.23-9.8,4.95-11.13,7.89-2.75,6-2.23,13.45.4,19.47a1.37,1.37,0,0,0,1.54.63c1.75-.54,3.18-2,5-2.54,4-1.17,7.74-.32,11.74-.6,1.74-.12,1.76-2.85,0-2.73-3.7.25-7.28-.43-11,.34-1.6.33-4.67,2.54-6,2.48-.55.36-.36.25.54-.34L25.72,49a14.77,14.77,0,0,0-.38-1.94,22.19,22.19,0,0,1-.34-6.8c.46-3.93,2.37-9,5.8-11.34,2.33-1.6,2.55-.75,3.37,1.46L37,37.94,41.34,49.8C42,51.43,44.59,50.73,44,49.07Z"></path><path class="cls-1" d="M245.92,245.62c0-.06,0-.11,0-.16,2.7-11.31,4.13-23.12,2.08-34.61-1.07-6.07-3.3-11.8-4.17-17.93-.59-4.13-1-8.2-2-12.28-.67-2.77-1.43-5.52-2-8.31-1.31-5.9-.4-11.91-.84-17.91-.33-4.44-.84-8.94-2.59-13.09a24.42,24.42,0,0,0-2.94-5.19c-1.73-2.33-4.33-3.77-6.07-6-.57-.72-.9-.69-1.1-1.29a17.48,17.48,0,0,1-.19-2.25,11.83,11.83,0,0,0-1.44-4.21,10.46,10.46,0,0,0-8-5c-3.4-.44-6.16.52-9.48-.46a116.44,116.44,0,0,0-16.7-3.84c-15-2.12-30.21-.06-45.23.72-10.65.55-14.94-5.6-20-13.61-2.69-4.25-5.27-8.58-7.87-12.89,6.25-2.55,8.83-7.31,10-14.06,1.77-10,6.57-19,6.28-29.31-.18-6.42-3-13.44-9.8-15.48-8.72-2.64-16.21,6.21-21.63,11.66a119.5,119.5,0,0,0-10.86,12.7l-2,2.7A15,15,0,0,0,88,57.38l-.15.26c-4,.59-8.82-.27-12.77-.35l-20.5-.43c-4.72-.09-9.42-.43-14.09.51A41.2,41.2,0,0,0,22,66.06a25.75,25.75,0,0,0-7.09,9.13c-2.16,4.69-1.8,8.47-2.22,13.39a9.35,9.35,0,0,1-.49,2.23.9.9,0,0,0-.05.16l-.74.6a9.92,9.92,0,0,0-3,4C7,98.9,7.76,99.44,5.16,102a16.83,16.83,0,0,0-2.65,21,64.46,64.46,0,0,0,10.34,12.28c2.68,2.52,5.66,3.51,9.08,4.53,4.37,1.3,8,3.28,12.68,3.46,5.3.22,10.15,1.14,13.84,5.38,2.52,2.88,1.58,3.74.88,8-.88,5.44-1.26,11-1.74,16.45-.6,7,.85,13.15,2,19.93,1.23,7.05.92,14.3,2.48,21.3.64,2.86,1.5,5.68,2.06,8.56.8,4.13,1.32,10.25-.76,14.21-.9,1.73-2.7,2.87-4.21,4-5.7,4.28-4.3,9.68,2.58,10.84,1.65,3,5,3.6,8.32,2.42,0,0,1.79-1.34.83-.94,2.73-1.12,2.68-.12,4.42,0A12.18,12.18,0,0,0,72.19,252c3.89-2,4.15-3.08,5.79-7.07,1.07-2.6,2.4-5,2.63-7.81.35-4.18-.2-8.62-.29-12.82-.07-2.84.42-6.59.07-9.7a69.66,69.66,0,0,0,9.81,2.84c4.38.75,9,.85,13.42,1.19q1.18,6.43,2.36,12.87c1.16,6.33,2.4,10.87-1.33,16.79-2.34,3.7-6.44,8.43-2.69,12.7a6.35,6.35,0,0,0,6.27,2c.26-.08.88-.13,1.18-.22a7.3,7.3,0,0,0,.81.79,11.5,11.5,0,0,0,4.9,1.95c3.34.46,5.13-1,8-2l.14-.05h.17c.78,0,1.7.36,2.48.39a12.17,12.17,0,0,0,4.81-.83c6.63-2.55,8.6-9.8,8.31-16.25-.43-9.58-1.1-20,.84-29.51.54-2.65-.19-.5,1.16-.86a72.45,72.45,0,0,1,7.38-1.07c4.88-.78,9.74-1.67,14.54-2.85a100,100,0,0,0,15.78-5.25c4.94,5.87,17,16.84,11.74,24.75-2.22,3.37-7.68,3.56-9.18,7.4s1.74,6.62,5.29,6.85c10.95.68,21.2-1.53,25.42-12.81,1.79-4.78,4-9.83,4.2-15,.08-2.39.06-4.79,0-7.19,4.76,7,11.49,17.88,4.89,23.94-2.3,2.12-5.88,2.83-8.21,4.94a8.67,8.67,0,0,0-1.73,9.91c3.32,7,11.67,4.71,17.73,4,3.85-.42,8-.44,11.79-1.29a5.26,5.26,0,0,0,2.88-1.65,1.22,1.22,0,0,0,1.14-1c.28-1,.56-2.12.82-3.18l0-.1C245.71,246.44,245.81,246,245.92,245.62ZM87.74,57.88c-.14.19-.15.13,0,0Zm125.76,160c-.17,4.45-1.84,8.35-3.31,12.49-2.61,7.39-7.23,12.69-15.61,13.05-2.36.1-15.09.45-9.26-4.54,3-2.56,6.54-3,8.27-7,1.52-3.55.77-8.68-1.25-11.91-3.1-4.95-7.28-9.43-11-14,1.2-.56,2.4-1.14,3.58-1.76,6.5-3.41,12.4-7.8,18.82-11.31l9.79,14.25c0,.06,0,.12,0,.19C213.5,210.9,213.63,214.42,213.5,217.92Zm21.27,32.74c-4.48.49-9.08,1.34-13.58,1.5-1.9.06-3.19.46-5.19-.74-4.19-2.5-3.3-7.59,0-10,2.88-2.1,7-3.11,9-6.24,4.82-7.67-1.86-18.74-6.29-25.2l-13.31-19.36L202,179a1.37,1.37,0,0,0-2.64.73q.87,2.94,1.73,5.88a43.91,43.91,0,0,0,1.25,4.24c.07.17.13.36.19.56-2.82,1-5.43,3.34-7.91,4.93-3.13,2-6.3,3.94-9.56,5.72A91.05,91.05,0,0,1,165.53,209c-9,2.47-18.14,3.1-27.18,5a1.42,1.42,0,0,0-1,1.32c-.42,4.4-.89,8.79-1.13,13.2q-.37,7-.11,13.94c.15,3.89.82,7.8-.56,11.58-1.49,4.1-5,7.29-9.61,7.06-3.38-.17-2-.62-4.51.22-2.07.69-.59,1.5-4.79,1.54-3.06,0-3.42-1.86-6-2.53-1.63-.43-3.12,0-4.85-.67-5.78-2.24.5-8.53,2.22-11.44a15.43,15.43,0,0,0,1.74-11c-1.1-6.72-2.46-13.42-3.69-20.12-.34-2.88-.36-6.08-1.23-8.83-1-3.27-3-6.47-4.4-9.59-.74-1.6-3.09-.21-2.36,1.38,1.39,3,3.18,6.07,4.24,9.23l0,.11a1.31,1.31,0,0,0,0,.15,30.11,30.11,0,0,1,.39,3.15c.14,1,.27,2.11.4,3.16-4.22-.31-8.54-.44-12.69-1.14-3-.51-7.5-2.19-11.08-3.31-1.32-2-4-3.37-5.54-5.27-1.94-2.41-3.33-6.11-4.83-9-.81-1.57-3.17-.19-2.36,1.37,1.41,2.73,2.61,5.83,4.33,8.37,1.47,2.16,3.76,3.92,5.7,5.67a5.14,5.14,0,0,0,.56.44,1.53,1.53,0,0,0,0,.39,32.8,32.8,0,0,1,.09,4q.13,6.36.29,12.73c0,2.5.59,5.52.18,8-.33,2-2.53,5.91-3.48,8.38s-.22,1.31-1.48,2c-2.88,1.51-4.07,2.39-7.72,2.18-1.76-.1-3.29-.52-5,.18-2,.81-4.75,3.33-6.2-.43a1.76,1.76,0,0,0-1.31-1c-1.08-.11-4.75-1.49-4.65-3.15.07-1.4,1.82-2.09,2.72-2.86s1.7-1.28,2.51-2c2.48-2.11,3.17-4.27,3.74-7.47,1.26-7-.69-13.18-2.16-19.88C53.69,208.73,53.49,203.32,53,198c-.43-4.59-1.5-9-2.3-13.55-1.2-6.76-.16-13.49.46-20.26.37-3.94,2.27-9,1.83-12.86-.57-4.89-6.8-8.67-11.2-10-3.06-.94-6.13-.56-9.25-1-3.7-.5-8-2.43-11.67-3.56-5.77-1.77-9.53-7.21-13.32-11.62C4,120.91,1.82,116.37,3.1,110.77c1.06-4.67,3.56-5.44,6-8.81,1.14-1.6,1.05-3.23,1.79-5.1,1.5-3.77,3.94-3.45,4.41-7.55.37-3.32-.1-6.49.88-9.84,1.6-5.5,5.12-9.58,9.68-12.91,9.46-6.91,19.46-7.16,30.57-6.93l18.2.38c4.15.08,9,.87,13.09.27,3.64-.53,5.84-5.89,8-8.68a111.32,111.32,0,0,1,12.37-13.31c5-4.51,11.6-11.1,18.34-5.27,8.76,7.59,3.29,21.51.38,30.56C124.08,72.13,125.42,82,115,85.31a1.38,1.38,0,0,0-.81,2c2.43,4,4.83,8.08,7.31,12.08,3.15,5.08,6.19,11.4,11.44,14.62s11.06,2.63,17,2.27c6.52-.39,13-.8,19.55-1.18A100.26,100.26,0,0,1,200.89,118c2.64.69,5.47,2,8.17,2.36,4.91.75,10.5-1.83,13.46,3.9,1.21,2.33.38,4.94,1.63,7,.76,1.24,3.93,3,5.14,4.24a23.28,23.28,0,0,1,2.61,3.24,24.46,24.46,0,0,1,3.41,8.5c2,9.32.11,18.8,2.38,28.06,2.17,8.84,2.86,18,5.26,26.75,4.12,15.07,3.65,29,.06,43.84C241.6,250.56,239.59,250.13,234.77,250.66Z"></path><path class="cls-1" d="M282.44,43.24h38.25V54.49H307.76V122H295.38V54.49H282.44Z"></path><path class="cls-1" d="M333.52,62.14c0-12.6,6.64-19.8,18.79-19.8s18.78,7.2,18.78,19.8v41c0,12.6-6.63,19.8-18.78,19.8s-18.79-7.2-18.79-19.8Zm12.37,41.74c0,5.62,2.48,7.76,6.42,7.76s6.41-2.14,6.41-7.76V61.35c0-5.62-2.48-7.76-6.41-7.76s-6.42,2.14-6.42,7.76Z"></path><path class="cls-1" d="M413.73,99.15l8.44-55.91h17.21V122h-11.7V65.51L419.13,122h-11.7L398.21,66.3V122h-10.8V43.24h17.21Z"></path><path class="cls-1" d="M473,90.6l-3.83,7.2V122H456.82V43.24h12.37V77.55l16.2-34.31h12.38l-17.21,35.1L497.77,122H485.05Z"></path><path class="cls-1" d="M511.83,43.24H524.2V122H511.83Z"></path><path class="cls-1" d="M552.67,65v57H541.53V43.24h15.52l12.72,47.14V43.24h11V122H568.08Z"></path><path class="cls-1" d="M616.68,78.11H634v25c0,12.6-6.3,19.8-18.45,19.8s-18.45-7.2-18.45-19.8V62.14c0-12.6,6.3-19.8,18.45-19.8S634,49.54,634,62.14v7.65H622.3V61.35c0-5.62-2.47-7.76-6.41-7.76s-6.41,2.14-6.41,7.76v42.53c0,5.62,2.47,7.65,6.41,7.65s6.41-2,6.41-7.65V89.36h-5.62Z"></path><path class="cls-1" d="M667.08,42.34c12,0,18.22,7.2,18.22,19.8v2.47H673.6V61.35c0-5.62-2.25-7.76-6.18-7.76s-6.19,2.14-6.19,7.76c0,16.2,24.19,19.24,24.19,41.74,0,12.6-6.3,19.8-18.45,19.8s-18.45-7.2-18.45-19.8V98.25h11.7v5.63c0,5.62,2.47,7.65,6.41,7.65s6.41-2,6.41-7.65c0-16.2-24.19-19.24-24.19-41.74C648.85,49.54,655,42.34,667.08,42.34Z"></path><path class="cls-1" d="M332.68,136c-4.79,10-12.85,27.16-17.48,37.5q3.93-7.17,8-13.19a67.38,67.38,0,0,1,7.7-9.73q3.64-3.71,6.88-4.45c2.16-.51,4.05.33,5.67,2.48a6,6,0,0,1,1.16,4,14.09,14.09,0,0,1-1.16,4.74,26.79,26.79,0,0,1-2.83,5,46.75,46.75,0,0,1-3.94,4.86,55.16,55.16,0,0,1-4.4,4.28,42.09,42.09,0,0,1-4.11,3.24c3.71-.38,6.93-.81,9.67-1.27a39,39,0,0,0,7.93-2.2,52.12,52.12,0,0,0,7.93-4q4.11-2.49,9.9-6.54c.69-.54,1.27-.5,1.73.11s.5,1.28-.11,1.74q-4.51,3.24-10,6.37a86.89,86.89,0,0,1-11.34,5.44A64.23,64.23,0,0,1,332,177.79a36,36,0,0,1-11.69.29c-1.46-.23-2-.56-1.73-1a6.2,6.2,0,0,1,1.73-1.45v-.11h.35a12.71,12.71,0,0,1,1.45-.64l1.33-.52a9.75,9.75,0,0,1,1.39-.58,13.87,13.87,0,0,0,3.3-2.49,61.87,61.87,0,0,0,4.28-4.51q2.25-2.61,4.28-5.44a34.57,34.57,0,0,0,3.24-5.45,13.8,13.8,0,0,0,1.39-4.57,2.57,2.57,0,0,0-1.44-2.78q-2.08-1-5.33,2a51.84,51.84,0,0,0-6.83,8.11q-3.58,5.09-7.23,11.34t-6.6,11.75q-3,5.49-4.86,9.32c-1.28,2.54-1.95,3.89-2,4-.15.31-.58,1.25-1.27,2.83s-1.54,3.51-2.55,5.79-2.06,4.73-3.18,7.35-2.22,5.15-3.3,7.58-2,4.61-2.84,6.54-1.37,3.28-1.67,4.05c-.16.47-.31.93-.47,1.39s-.31,1-.46,1.51a12.86,12.86,0,0,0-1.8-.46c-1-.24-1.79-.39-2.25-.47l1.27-3.12q1.16-3.94,3.76-10.59t6.14-14.94q3.52-8.26,7.7-17.65t8.45-18.69q4.28-9.32,8.33-18.18c2.7-5.9,3.31-7.27,5.59-12.09"></path><path class="cls-1" d="M368.56,160.26q-2.43,5.43-4.05,9.37c-1.08,2.63-2.12,5.38-3.12,8.28a40.88,40.88,0,0,0-2,7.64q-.46,3.3.4,4.74t4.11-.52a15.68,15.68,0,0,0,3.65-3.18c1.35-1.51,2.76-3.24,4.22-5.21s2.95-4.07,4.46-6.31,2.93-4.4,4.28-6.48,2.63-4,3.82-5.73,2.18-3.11,2.95-4.11a1.37,1.37,0,0,1,1.16-.69,2.18,2.18,0,0,1,1.22.34,2.69,2.69,0,0,1,.81.87,1.11,1.11,0,0,1,.17.87c-.15.62-.31,1.29-.46,2a18.93,18.93,0,0,1-.81,2.6,55.77,55.77,0,0,0-2.55,11.17q-.35,4.11.64,5.85a2.91,2.91,0,0,0,3.12,1.5,12.3,12.3,0,0,0,4.86-1.85,48.5,48.5,0,0,0,5.85-4.17c2.08-1.69,4.13-3.51,6.14-5.44s3.91-3.86,5.73-5.79,3.37-3.62,4.68-5.09a1,1,0,0,1,.87-.46,1.18,1.18,0,0,1,.87.34c.62.47.65,1,.11,1.74l-5.2,5.9a98,98,0,0,1-9.32,8.86,54.77,54.77,0,0,1-8.51,5.9,18.67,18.67,0,0,1-7,2.43,5.48,5.48,0,0,1-4.81-1.56q-1.72-1.84-1.91-6.08a37.56,37.56,0,0,1,1.8-11.17l-5,8.05q-2.72,4.33-5.55,8.1a58.79,58.79,0,0,1-5.68,6.54,11.86,11.86,0,0,1-5.38,3.36q-4,.93-5.55-1.22a9.54,9.54,0,0,1-1.45-5.79,36.3,36.3,0,0,1,1.21-8.21c.78-3.05,1.64-5.92,2.61-8.63s1.83-5,2.6-6.88,1.2-2.92,1.28-3.07a1.19,1.19,0,0,1,1.15-.7,5.4,5.4,0,0,1,1.68.29,4.83,4.83,0,0,1,1.45.76C368.48,159.75,368.64,160,368.56,160.26Z"></path><path class="cls-1" d="M434,136c-4.79,10-12.85,27.16-17.48,37.5q3.94-7.17,8-13.19a68.08,68.08,0,0,1,7.7-9.73c2.43-2.47,4.72-3.95,6.89-4.45s4.05.33,5.67,2.48a6.08,6.08,0,0,1,1.16,4,14.33,14.33,0,0,1-1.16,4.74,26.86,26.86,0,0,1-2.84,5A48,48,0,0,1,438,167.2a56.9,56.9,0,0,1-4.4,4.28,44.63,44.63,0,0,1-4.11,3.24c3.7-.38,6.92-.81,9.66-1.27a38.8,38.8,0,0,0,7.93-2.2,52.12,52.12,0,0,0,7.93-4q4.11-2.49,9.9-6.54c.69-.54,1.27-.5,1.73.11s.51,1.28-.11,1.74q-4.51,3.24-10,6.37a85.68,85.68,0,0,1-11.34,5.44,64.35,64.35,0,0,1-11.92,3.41,36,36,0,0,1-11.69.29c-1.47-.23-2.05-.56-1.74-1a6.43,6.43,0,0,1,1.74-1.45v-.11h.34a14.48,14.48,0,0,1,1.45-.64l1.33-.52a10.25,10.25,0,0,1,1.39-.58,13.87,13.87,0,0,0,3.3-2.49,61.87,61.87,0,0,0,4.28-4.51c1.51-1.74,2.93-3.55,4.29-5.44a34.57,34.57,0,0,0,3.24-5.45,14,14,0,0,0,1.39-4.57,2.59,2.59,0,0,0-1.45-2.78q-2.08-1-5.33,2a52.39,52.39,0,0,0-6.83,8.11q-3.59,5.09-7.23,11.34t-6.6,11.75q-3,5.49-4.86,9.32l-2,4c-.15.31-.57,1.25-1.27,2.83s-1.54,3.51-2.55,5.79-2.06,4.73-3.18,7.35-2.22,5.15-3.3,7.58-2,4.61-2.83,6.54-1.37,3.28-1.68,4.05c-.16.47-.31.93-.46,1.39s-.31,1-.47,1.51a13,13,0,0,0-1.79-.46c-1-.24-1.8-.39-2.26-.47l1.27-3.12q1.17-3.94,3.77-10.59t6.13-14.94q3.54-8.26,7.7-17.65t8.45-18.69q4.27-9.32,8.33-18.18c2.7-5.9,3.31-7.27,5.59-12.09"></path><path class="cls-1" d="M480.49,136c-4.78,10-12.84,27.16-17.47,37.5q3.93-7.17,8-13.19a68.08,68.08,0,0,1,7.7-9.73q3.65-3.71,6.89-4.45c2.16-.51,4.05.33,5.67,2.48a6.08,6.08,0,0,1,1.16,4,14.33,14.33,0,0,1-1.16,4.74,26.31,26.31,0,0,1-2.84,5,45.39,45.39,0,0,1-3.93,4.86,56.9,56.9,0,0,1-4.4,4.28,44.63,44.63,0,0,1-4.11,3.24c3.7-.38,6.93-.81,9.67-1.27a38.89,38.89,0,0,0,7.92-2.2,52.12,52.12,0,0,0,7.93-4q4.11-2.49,9.9-6.54c.7-.54,1.27-.5,1.74.11s.5,1.28-.12,1.74q-4.51,3.24-9.95,6.37a86.41,86.41,0,0,1-11.35,5.44,64.13,64.13,0,0,1-11.92,3.41,36,36,0,0,1-11.69.29c-1.47-.23-2.05-.56-1.74-1a6.43,6.43,0,0,1,1.74-1.45v-.11h.35a13.38,13.38,0,0,1,1.44-.64l1.33-.52a10.81,10.81,0,0,1,1.39-.58,13.87,13.87,0,0,0,3.3-2.49c1.35-1.27,2.78-2.78,4.29-4.51s2.93-3.55,4.28-5.44a34.57,34.57,0,0,0,3.24-5.45,14,14,0,0,0,1.39-4.57,2.59,2.59,0,0,0-1.45-2.78q-2.09-1-5.32,2a51.84,51.84,0,0,0-6.83,8.11q-3.6,5.09-7.24,11.34t-6.6,11.75q-2.94,5.49-4.86,9.32l-2,4c-.16.31-.58,1.25-1.28,2.83L451,203.72c-1,2.28-2.07,4.73-3.19,7.35s-2.21,5.15-3.3,7.58-2,4.61-2.83,6.54-1.37,3.28-1.68,4.05c-.15.47-.31.93-.46,1.39s-.31,1-.47,1.51a13,13,0,0,0-1.79-.46c-1-.24-1.79-.39-2.26-.47l1.28-3.12q1.16-3.94,3.76-10.59t6.13-14.94q3.54-8.26,7.7-17.65t8.45-18.69q4.29-9.32,8.34-18.18c2.7-5.9,3.31-7.27,5.58-12.09"></path><path class="cls-1" d="M517.54,158.75c-.08.16-.72,1-1.91,2.66s-2.59,3.63-4.17,6-3.16,5-4.75,7.76a59.56,59.56,0,0,0-3.76,7.75,13.71,13.71,0,0,0-1.16,6c.16,1.62,1.16,2.51,3,2.67,1.32.07,3-.53,5.1-1.8a55.68,55.68,0,0,0,6.71-4.92q3.58-3,7.29-6.71t7-7.18q3.3-3.47,5.85-6.31t3.82-4.11a1.23,1.23,0,1,1,1.74,1.74c-.93,1-2.28,2.51-4,4.51s-3.81,4.19-6.08,6.54-4.69,4.79-7.24,7.3-5.05,4.76-7.52,6.77a55.12,55.12,0,0,1-7,4.92,10,10,0,0,1-5.73,1.68c-2.63-.16-4.27-1.14-4.92-3a11.9,11.9,0,0,1-.12-6.65,43.28,43.28,0,0,1,3-8.51q2.08-4.58,4.4-8.62c1.55-2.7,2.95-5,4.23-6.89s2-3,2.25-3.42a1.27,1.27,0,0,1,1.16-.34,4.15,4.15,0,0,1,1.39.52,5,5,0,0,1,1.16.92C517.5,158.46,517.61,158.67,517.54,158.75Zm9.26-15.16a22.14,22.14,0,0,1-1.57,2.14c-.65.81-1.33,1.62-2,2.43s-1.33,1.58-1.91,2.31a19.42,19.42,0,0,0-1.22,1.68,1.34,1.34,0,0,1-.52.87,1,1,0,0,1-1,.06,1.17,1.17,0,0,1-.93-1.51l1.27-2.2c.54-.92,1.08-1.89,1.62-2.89s1.07-1.91,1.57-2.72l1.1-1.79a1.49,1.49,0,0,1,1.27-.47,1.79,1.79,0,0,1,1.27.35,4.48,4.48,0,0,1,.87.87Q527,143.25,526.8,143.59Z"></path><path class="cls-1" d="M543,162.57a21.73,21.73,0,0,0-1.74,7.87,6.92,6.92,0,0,0,1.8,5.21c1.19,1.16,3,1.58,5.5,1.27s5.63-1.69,9.49-4.16q2.9-1.86,4.8-3.19c1.28-.88,2.47-1.75,3.59-2.6s2.24-1.78,3.36-2.78,2.52-2.2,4.22-3.59a1.27,1.27,0,0,1,1.86,0,1.22,1.22,0,0,1-.12,1.86c-1.78,1.38-3.24,2.6-4.4,3.64s-2.3,2-3.41,2.9-2.34,1.77-3.65,2.66-2.93,2-4.86,3.18a36.63,36.63,0,0,1-8.63,4,12.65,12.65,0,0,1-6.19.47,8.08,8.08,0,0,1-4.34-2.78,11,11,0,0,1-2.2-5.1,18.47,18.47,0,0,1,.23-6.77,28.86,28.86,0,0,1,2.84-7.7,34.17,34.17,0,0,1,5.38-7.81,25.7,25.7,0,0,1,5.44-4.46,11.52,11.52,0,0,1,4.75-1.67,5.91,5.91,0,0,1,3.53.63,4.73,4.73,0,0,1,2,3.59,8.42,8.42,0,0,1-1.44,5.33,19.15,19.15,0,0,1-5.85,5.67,35,35,0,0,1-11.17,4.51A1.79,1.79,0,0,1,543,162.57Zm1-2.43a31.6,31.6,0,0,0,10.13-4.34,16.07,16.07,0,0,0,4.92-5c.85-1.58,1-2.89.52-3.93a2.35,2.35,0,0,0-2.83-1.22q-2.09.35-5.21,3.24t-6.6,9.38Z"></path><path class="cls-1" d="M597.17,149.14a6.2,6.2,0,0,0-3.53-.58,22.55,22.55,0,0,0-5.38,1,20.7,20.7,0,0,0-5.56,2.66,11.17,11.17,0,0,0-3.93,4.46,7.41,7.41,0,0,0-.87,5,7.2,7.2,0,0,0,2.26,3.65,18.73,18.73,0,0,0,4.16,2.78q2.45,1.22,4.75,2.6a145.45,145.45,0,0,1,15.45-6.36q7.47-2.55,13-4.05a1.12,1.12,0,0,1,1.27,1.27c0,.77-.43,1.16-1.27,1.16q-4.87,1.38-11.69,3.76a147.55,147.55,0,0,0-14.24,5.84,25.53,25.53,0,0,1,3.35,3,9,9,0,0,1,2.09,3.59,8,8,0,0,1-.06,4.34,13.5,13.5,0,0,1-3.07,5.15,20.9,20.9,0,0,1-5.9,4.34,43.66,43.66,0,0,1-8.1,3.3,39.45,39.45,0,0,1-8.28,1.57,11.24,11.24,0,0,1-6.19-.93,3.74,3.74,0,0,1-1.86-4.11q.36-2.9,4.52-7.87a36.56,36.56,0,0,1,7.12-6.19,73.25,73.25,0,0,1,10-5.73,16.08,16.08,0,0,0-1.91-1c-.66-.31-1.29-.62-1.91-.93q-5.89-3.12-7.47-6.54a8.12,8.12,0,0,1-.34-6.54,13.42,13.42,0,0,1,4.51-5.67,29.91,29.91,0,0,1,7.18-4.11,25.58,25.58,0,0,1,7.64-1.85,8.61,8.61,0,0,1,5.84,1.21,1,1,0,0,1,.12,1.74,1,1,0,0,1-.87.46A1.2,1.2,0,0,1,597.17,149.14Zm-9.26,25.12a94,94,0,0,0-10.53,5.85,35.88,35.88,0,0,0-7.41,6.07q-3.71,4.51-3.93,6.6a2.07,2.07,0,0,0,1.67,2.55A11.76,11.76,0,0,0,573,195a47.26,47.26,0,0,0,6.89-2.26,63.21,63.21,0,0,0,6.48-3.06,16,16,0,0,0,4-2.78,13.91,13.91,0,0,0,2.55-4.28,5.24,5.24,0,0,0,.06-3.36,6.49,6.49,0,0,0-1.91-2.72A22.23,22.23,0,0,0,587.91,174.26Z"></path></g></g></svg> 